<svg width="25" height="25" viewBox="0 0 25 25" fill="none" xmlns="http://www.w3.org/2000/svg">
<path d="M21.9219 0.520004C23.1406 0.520004 24.1719 1.55125 24.1719 2.77V16.27C24.1719 17.5356 23.1406 18.52 21.9219 18.52H8.42188C7.15625 18.52 6.17188 17.5356 6.17188 16.27V2.77C6.17188 1.55125 7.15625 0.520004 8.42188 0.520004H21.9219ZM8.42188 20.02H18.1719V22.27C18.1719 23.5356 17.1406 24.52 15.9219 24.52H2.42188C1.15625 24.52 0.171875 23.5356 0.171875 22.27V8.77C0.171875 7.55125 1.15625 6.52 2.42188 6.52H4.67188V16.27C4.67188 18.3794 6.3125 20.02 8.42188 20.02Z" fill="#3B75A2"/>
</svg>
